<svg width="100" height="100" viewBox="0 0 100 100" fill="none" xmlns="http://www.w3.org/2000/svg">
<path d="M84.375 46.875H22.0328L45.9047 24.1375C47.1547 22.9469 47.2031 20.9687 46.0125 19.7187C44.8234 18.4703 42.8453 18.4203 41.5938 19.6109L14.3312 45.5797C13.1516 46.7609 12.5 48.3297 12.5 50C12.5 51.6687 13.1516 53.2391 14.3859 54.4719L41.5953 80.3875C42.2 80.9641 42.975 81.25 43.75 81.25C44.575 81.25 45.4 80.925 46.0141 80.2797C47.2047 79.0297 47.1562 77.0531 45.9062 75.8625L21.9344 53.125H84.375C86.1 53.125 87.5 51.725 87.5 50C87.5 48.275 86.1 46.875 84.375 46.875V46.875Z" fill="white"/>
</svg>
