<svg width="350" height="350" viewBox="0 0 350 350" fill="none" xmlns="http://www.w3.org/2000/svg">
<circle cx="175" cy="175" r="175" fill="white" fill-opacity="0.3"/>
<circle cx="175" cy="175" r="145" fill="#F8F8F8"/>
<path d="M217.373 132.625C211.087 126.282 203.456 121.432 195.044 118.433C186.633 115.435 177.655 114.364 168.773 115.3C141.248 118.075 118.598 140.425 115.523 167.95C111.398 204.325 139.523 235 174.998 235C186.324 235 197.418 231.786 206.99 225.733C216.562 219.679 224.22 211.033 229.073 200.8C231.473 195.775 227.873 190 222.323 190C219.548 190 216.923 191.5 215.723 193.975C211.369 203.343 203.921 210.925 194.633 215.446C185.345 219.967 174.782 221.152 164.723 218.8C148.073 215.125 134.648 201.55 131.123 184.9C129.642 178.317 129.659 171.485 131.174 164.91C132.688 158.334 135.662 152.183 139.875 146.912C144.087 141.641 149.431 137.384 155.511 134.457C161.591 131.529 168.251 130.006 174.998 130C187.448 130 198.548 135.175 206.648 143.35L195.323 154.675C190.598 159.4 193.898 167.5 200.573 167.5H227.498C231.623 167.5 234.998 164.125 234.998 160V133.075C234.998 126.4 226.898 123.025 222.173 127.75L217.373 132.625V132.625Z" fill="black"/>
</svg>
