<svg width="350" height="350" viewBox="0 0 350 350" fill="none" xmlns="http://www.w3.org/2000/svg">
<circle cx="175" cy="175" r="175" fill="white" fill-opacity="0.3"/>
<circle cx="175" cy="175" r="145" fill="#F8F8F8"/>
<path d="M219.49 180.875C219.74 179 219.865 177.063 219.865 175C219.865 173 219.74 171 219.427 169.125L232.115 159.25C232.661 158.799 233.035 158.173 233.172 157.478C233.308 156.783 233.2 156.062 232.865 155.438L220.865 134.688C220.511 134.06 219.947 133.577 219.272 133.326C218.597 133.074 217.855 133.069 217.177 133.313L202.24 139.313C199.115 136.938 195.802 134.938 192.115 133.438L189.865 117.563C189.754 116.847 189.39 116.195 188.84 115.725C188.289 115.255 187.589 114.997 186.865 115H162.865C161.365 115 160.177 116.063 159.927 117.563L157.677 133.438C153.99 134.938 150.615 137 147.552 139.313L132.615 133.313C131.24 132.813 129.677 133.313 128.927 134.688L116.99 155.438C116.24 156.75 116.49 158.375 117.74 159.25L130.427 169.125C130.115 171 129.865 173.063 129.865 175C129.865 176.938 129.99 179 130.302 180.875L117.615 190.75C117.068 191.201 116.694 191.827 116.558 192.522C116.421 193.217 116.529 193.938 116.865 194.563L128.865 215.313C129.615 216.688 131.177 217.125 132.552 216.688L147.49 210.688C150.615 213.063 153.927 215.063 157.615 216.563L159.865 232.438C160.177 233.938 161.365 235 162.865 235H186.865C188.365 235 189.615 233.938 189.802 232.438L192.052 216.563C195.74 215.063 199.115 213.063 202.177 210.688L217.115 216.688C218.49 217.188 220.052 216.688 220.802 215.313L232.802 194.563C233.552 193.188 233.24 191.625 232.052 190.75L219.49 180.875V180.875ZM174.865 197.5C162.49 197.5 152.365 187.375 152.365 175C152.365 162.625 162.49 152.5 174.865 152.5C187.24 152.5 197.365 162.625 197.365 175C197.365 187.375 187.24 197.5 174.865 197.5Z" fill="black"/>
</svg>
