<svg width="350" height="350" viewBox="0 0 350 350" fill="none" xmlns="http://www.w3.org/2000/svg">
<circle cx="175" cy="175" r="175" fill="white" fill-opacity="0.3"/>
<circle cx="175" cy="175" r="145" fill="#F8F8F8"/>
<path d="M222.125 131.75C215.859 125.528 208.412 120.62 200.223 117.314C192.035 114.009 183.268 112.372 174.438 112.5C157.862 112.459 141.948 119.004 130.198 130.696C118.447 142.387 111.823 158.268 111.781 174.844C111.74 191.42 118.285 207.334 129.977 219.084C141.669 230.834 157.549 237.459 174.125 237.5C177.697 237.561 181.188 236.434 184.05 234.296C186.912 232.158 188.983 229.13 189.938 225.688C190.546 223.202 190.54 220.605 189.919 218.122C189.299 215.639 188.082 213.345 186.375 211.438C185.981 210.989 185.723 210.436 185.633 209.844C185.543 209.253 185.625 208.649 185.868 208.103C186.112 207.556 186.507 207.092 187.007 206.763C187.506 206.435 188.09 206.257 188.688 206.25H199C208.706 206.296 218.07 202.667 225.211 196.094C232.353 189.521 236.743 180.489 237.5 170.813C237.733 163.598 236.489 156.411 233.845 149.694C231.201 142.977 227.213 136.871 222.125 131.75V131.75ZM142.75 192.125C141.216 193.168 139.406 193.732 137.551 193.746C135.695 193.76 133.878 193.223 132.328 192.203C130.778 191.183 129.565 189.727 128.844 188.017C128.122 186.308 127.924 184.423 128.274 182.601C128.625 180.779 129.508 179.102 130.812 177.782C132.116 176.462 133.782 175.559 135.6 175.187C137.418 174.815 139.305 174.99 141.023 175.691C142.741 176.392 144.212 177.587 145.25 179.125C145.946 180.141 146.433 181.284 146.684 182.49C146.935 183.695 146.945 184.938 146.712 186.147C146.48 187.356 146.01 188.507 145.33 189.533C144.65 190.559 143.773 191.44 142.75 192.125V192.125ZM151.875 157.813C150.986 159.46 149.624 160.803 147.965 161.669C146.306 162.535 144.425 162.885 142.565 162.673C140.706 162.462 138.952 161.698 137.53 160.481C136.108 159.264 135.083 157.649 134.586 155.844C134.09 154.04 134.145 152.128 134.745 150.355C135.345 148.582 136.462 147.029 137.952 145.896C139.442 144.763 141.236 144.102 143.105 143.998C144.974 143.894 146.831 144.352 148.438 145.313C150.51 146.552 152.025 148.544 152.665 150.873C153.306 153.201 153.023 155.687 151.875 157.813V157.813ZM168.75 143.75C166.896 143.75 165.083 143.2 163.542 142.17C162 141.14 160.798 139.676 160.089 137.963C159.379 136.25 159.194 134.365 159.555 132.546C159.917 130.728 160.81 129.057 162.121 127.746C163.432 126.435 165.103 125.542 166.921 125.18C168.74 124.819 170.625 125.004 172.338 125.714C174.051 126.423 175.515 127.625 176.545 129.167C177.575 130.708 178.125 132.521 178.125 134.375C178.125 136.862 177.137 139.246 175.379 141.004C173.621 142.762 171.237 143.75 168.75 143.75V143.75ZM204.688 148.75C203.081 149.711 201.224 150.169 199.355 150.065C197.486 149.961 195.692 149.3 194.202 148.167C192.712 147.034 191.595 145.481 190.995 143.708C190.395 141.935 190.34 140.023 190.836 138.218C191.333 136.414 192.358 134.799 193.78 133.582C195.202 132.365 196.956 131.601 198.815 131.389C200.675 131.178 202.556 131.528 204.215 132.394C205.874 133.26 207.236 134.603 208.125 136.25C209.273 138.375 209.556 140.861 208.915 143.19C208.275 145.519 206.76 147.511 204.688 148.75V148.75Z" fill="black"/>
</svg>
