<svg width="350" height="350" viewBox="0 0 350 350" fill="none" xmlns="http://www.w3.org/2000/svg">
<circle cx="175" cy="175" r="175" fill="white"/>
<path d="M320 175C320 136.544 304.723 99.6623 277.53 72.4695C250.338 45.2767 213.456 30 175 30C136.544 30 99.6623 45.2767 72.4695 72.4695C45.2768 99.6623 30 136.544 30 175L175 175H320Z" fill="#FF4040"/>
<path d="M320 172.172C320 210.629 304.723 247.51 277.53 274.703C250.338 301.895 213.456 317.172 175 317.172C136.544 317.172 99.6623 301.895 72.4695 274.703C45.2767 247.51 30 210.629 30 172.172L175 172.172H320Z" fill="#1A2228"/>
</svg>
