<svg width="350" height="350" viewBox="0 0 350 350" fill="none" xmlns="http://www.w3.org/2000/svg">
<g clip-path="url(#clip0)">
<circle cx="175" cy="175" r="175" transform="rotate(-180 175 175)" fill="white"/>
<path d="M30 175C30 213.456 45.2767 250.338 72.4695 277.53C99.6623 304.723 136.544 320 175 320C213.456 320 250.338 304.723 277.53 277.53C304.723 250.338 320 213.456 320 175L175 175H30Z" fill="#E1E1E1"/>
<path d="M30 177.828C30 139.371 45.2768 102.49 72.4695 75.2974C99.6623 48.1046 136.544 32.8279 175 32.8279C213.456 32.8279 250.338 48.1046 277.53 75.2974C304.723 102.49 320 139.371 320 177.828L175 177.828H30Z" fill="#1B1B1B"/>
</g>
<defs>
<clipPath id="clip0">
<rect width="350" height="350" fill="white" transform="translate(350 350) rotate(-180)"/>
</clipPath>
</defs>
</svg>
