<svg width="180" height="180" viewBox="0 0 180 180" fill="none" xmlns="http://www.w3.org/2000/svg">
<circle cx="90" cy="90" r="90" transform="rotate(-180 90 90)" fill="white"/>
<path d="M121.229 47.8264C119.794 47.028 118.216 46.5202 116.585 46.3322C114.953 46.1442 113.301 46.2795 111.722 46.7305C110.143 47.1816 108.669 47.9394 107.383 48.9607C106.097 49.982 105.025 51.2468 104.229 52.6826L81.0226 94.4451L67.7413 81.1639C66.5883 79.97 65.209 79.0177 63.6839 78.3626C62.1589 77.7075 60.5186 77.3627 58.8589 77.3483C57.1991 77.3338 55.5531 77.6501 54.0169 78.2786C52.4807 78.9071 51.0851 79.8353 49.9114 81.009C48.7378 82.1826 47.8096 83.5783 47.1811 85.1145C46.5526 86.6507 46.2363 88.2967 46.2507 89.9564C46.2651 91.6162 46.61 93.2564 47.2651 94.7815C47.9202 96.3065 48.8725 97.6858 50.0663 98.8389L75.0664 123.839C77.4289 126.208 80.6164 127.508 83.9039 127.508L85.6351 127.383C87.551 127.115 89.3786 126.406 90.974 125.311C92.5693 124.217 93.8889 122.767 94.8289 121.076L126.079 64.8264C126.877 63.3917 127.384 61.8139 127.572 60.1831C127.76 58.5523 127.625 56.9005 127.175 55.3219C126.724 53.7433 125.968 52.2688 124.947 50.9827C123.927 49.6967 122.664 48.6241 121.229 47.8264V47.8264Z" fill="black"/>
</svg>
